<svg width="100%" height="100%" viewBox="0 0 345 248" fill="none" xmlns="http://www.w3.org/2000/svg">
<g clip-path="url(#clip0)">
<path d="M300.892 120.799H297.839V241.561H300.892V120.799Z" fill="#D4D6D7"/>
<path d="M329.07 136.189C329.265 178.416 299.594 212.786 299.594 212.786C299.594 212.786 269.609 178.691 269.415 136.464C269.22 94.2365 298.891 59.8667 298.891 59.8667C298.891 59.8667 328.876 93.9612 329.07 136.189Z" fill="#D4D6D7"/>
<path d="M239.843 177.619H238.273V239.73H239.843V177.619Z" fill="#B3B7B8"/>
<path d="M254.336 185.535C254.436 207.253 239.176 224.93 239.176 224.93C239.176 224.93 223.753 207.395 223.653 185.676C223.553 163.958 238.813 146.28 238.813 146.28C238.813 146.28 254.236 163.816 254.336 185.535Z" fill="#D4D6D7"/>
<path d="M270.796 248C294.293 248 313.342 245.076 313.342 241.47C313.342 237.863 294.293 234.939 270.796 234.939C247.298 234.939 228.249 237.863 228.249 241.47C228.249 245.076 247.298 248 270.796 248Z" fill="#D4D6D7"/>
<path d="M274.305 89.2725C270.7 83.1738 263.569 82.8896 263.569 82.8896C263.569 82.8896 256.619 81.9997 252.162 91.2881C248.007 99.9457 242.272 108.305 251.238 110.331L252.858 105.284L253.861 110.707C255.138 110.799 256.418 110.821 257.697 110.773C267.3 110.462 276.444 110.864 276.15 107.413C275.759 102.827 277.773 95.1406 274.305 89.2725Z" fill="#3A4043"/>
<path d="M261.324 100.758C261.324 100.758 265.982 107.288 263.187 112.574C260.392 117.861 269.709 123.458 269.709 123.458L276.541 108.532C276.541 108.532 268.466 103.245 270.64 98.2699L261.324 100.758Z" fill="#FBBEBE"/>
<path d="M264.429 103.556C268.889 103.556 272.504 99.9365 272.504 95.4712C272.504 91.0059 268.889 87.3861 264.429 87.3861C259.97 87.3861 256.355 91.0059 256.355 95.4712C256.355 99.9365 259.97 103.556 264.429 103.556Z" fill="#FBBEBE"/>
<path d="M236.485 104.818L243.233 96.1C243.233 96.1 245.609 86.9623 249.05 87.4256C252.492 87.8888 247.691 98.384 247.691 98.384L240.986 108.033L236.485 104.818Z" fill="#FBBEBE"/>
<path d="M270.64 220.79L272.814 232.296L277.473 233.54L276.23 219.858L270.64 220.79Z" fill="#FBBEBE"/>
<path d="M317.534 208.352L325.919 219.858L329.336 221.412L332.131 216.748L323.746 205.864L317.534 208.352Z" fill="#FBBEBE"/>
<path d="M268.777 118.483L263.597 111.654C263.597 111.654 253.56 113.507 252.628 114.44C251.696 115.373 255.112 132.476 255.112 132.476C255.112 132.476 255.734 137.141 258.529 139.628L261.324 141.494L284.305 136.83L285.169 126.591C285.484 122.862 285.017 119.107 283.799 115.569C282.58 112.031 280.637 108.787 278.094 106.044L274.095 106.591L268.777 118.483Z" fill="#667EEA"/>
<path d="M253.87 115.062L252.317 114.44L245.175 113.818C245.175 113.818 242.69 113.196 243.311 111.952C243.932 110.709 244.554 110.398 243.311 110.087C242.069 109.776 241.759 109.465 242.069 108.532C242.38 107.599 244.243 105.733 244.243 105.733L238.964 101.38C238.964 101.38 238.678 101.582 238.216 101.956C235.595 104.081 227.301 111.749 233.373 119.416C240.516 128.434 248.901 133.72 255.734 131.854L253.87 115.062Z" fill="#667EEA"/>
<path d="M260.702 139.939V144.293C260.702 144.293 257.907 149.579 258.839 154.555C259.771 159.53 260.081 162.018 260.081 162.018C260.183 166.249 260.915 170.442 262.255 174.457C264.429 180.676 257.286 221.412 266.293 222.034C275.299 222.656 280.268 223.278 283.063 220.169C285.858 217.059 278.404 163.573 278.404 163.573C278.404 163.573 303.87 216.748 309.149 214.571C314.429 212.394 327.783 207.419 326.23 204.62C324.677 201.822 285.547 139.628 285.547 139.628L284.305 136.83L260.702 139.939Z" fill="#3A4043"/>
<path d="M275.609 230.119C275.609 230.119 270.64 229.808 270.64 231.363C270.64 232.918 268.156 238.205 268.156 238.205C268.156 238.205 266.293 244.424 271.261 243.802C276.23 243.18 279.336 237.583 279.336 237.583L278.094 231.674L275.609 230.119Z" fill="#3A4043"/>
<path d="M327.472 219.236C327.472 219.236 323.124 216.437 323.435 218.303C323.745 220.169 324.056 225.144 326.23 225.455C328.404 225.766 334.925 227.632 335.236 228.254C335.547 228.876 343 231.363 343 227.321C343 223.278 338.342 220.169 338.342 220.169L333.062 216.126C333.062 216.126 329.646 215.815 329.025 217.992C328.404 220.169 327.472 219.236 327.472 219.236Z" fill="#3A4043"/>
<path d="M264.441 88.0837C267.289 88.0837 269.598 85.772 269.598 82.9205C269.598 80.0689 267.289 77.7572 264.441 77.7572C261.594 77.7572 259.285 80.0689 259.285 82.9205C259.285 85.772 261.594 88.0837 264.441 88.0837Z" fill="#3A4043"/>
<path d="M258.742 81.5617C258.742 80.2865 259.214 79.0565 260.066 78.1085C260.917 77.1606 262.089 76.5618 263.356 76.4275C263.176 76.4084 262.994 76.3987 262.813 76.3985C261.446 76.3985 260.134 76.9425 259.167 77.9108C258.2 78.8791 257.657 80.1923 257.657 81.5617C257.657 82.9311 258.2 84.2444 259.167 85.2126C260.134 86.1809 261.446 86.7249 262.813 86.7249C262.994 86.7247 263.176 86.715 263.356 86.6959C262.089 86.5616 260.917 85.9628 260.066 85.0149C259.214 84.0669 258.742 82.8369 258.742 81.5617Z" fill="#3A4043"/>
<path d="M272.711 88.6847L265.666 84.9892L255.936 86.5011L253.923 95.4034L258.934 95.2103L260.334 91.9399V95.1565L262.646 95.0676L263.988 89.8604L264.827 95.4034L273.047 95.2355L272.711 88.6847Z" fill="#3A4043"/>
<path d="M272.289 140.66L261.424 140.954C261.424 140.954 252.152 142.76 252.672 139.013C253.193 135.266 262.237 136.577 262.237 136.577L272.138 135.064L272.289 140.66Z" fill="#FBBEBE"/>
<path d="M280.886 105.517C281.432 105.434 281.99 105.549 282.459 105.842C282.928 106.134 283.277 106.584 283.444 107.112C285.571 113.823 292.124 136.284 285.613 139.366C277.944 142.995 272.348 142.836 272.348 142.836L269.352 135.451L272.079 132.888L274.991 114.145L276.386 106.2L280.886 105.517Z" fill="#667EEA"/>
<path opacity="0.4" d="M278.87 118.016L277.628 130.455L266.758 135.119L278.87 132.321V118.016Z" fill="black"/>
<path d="M220.251 76.9524C223.752 77.8813 226.781 80.0846 228.746 83.1312L229.761 84.7065L229.813 84.7716L247.634 89.9932C247.961 90.0889 248.237 90.3092 248.403 90.6066C248.569 90.9041 248.612 91.255 248.522 91.5838L247.139 96.6634C247.094 96.8289 247.016 96.9838 246.911 97.1192C246.806 97.2547 246.675 97.3679 246.526 97.4526C246.377 97.5372 246.213 97.5915 246.043 97.6123C245.873 97.6331 245.701 97.6201 245.536 97.5739L227.71 92.5848L227.71 92.5853L225.919 93.2631C222.623 94.511 219.007 94.6341 215.633 93.6131L220.251 76.9524Z" fill="#D4D6D7"/>
<path d="M239.019 91.6839C239.188 91.1063 238.448 90.3812 237.366 90.0643C236.285 89.7474 235.271 89.9588 235.102 90.5364C234.933 91.114 235.673 91.8391 236.755 92.156C237.837 92.4729 238.85 92.2615 239.019 91.6839Z" fill="#575A89"/>
<path d="M238.109 92.2166C238.522 92.2166 238.857 91.8812 238.857 91.4674C238.857 91.0537 238.522 90.7183 238.109 90.7183C237.695 90.7183 237.361 91.0537 237.361 91.4674C237.361 91.8812 237.695 92.2166 238.109 92.2166Z" fill="#D4D6D7"/>
<path d="M221.741 86.5739C223.227 81.9849 222.752 77.7192 220.679 77.0463C218.607 76.3734 215.722 79.548 214.236 84.1371C212.75 88.7262 213.225 92.9918 215.298 93.6648C217.37 94.3377 220.255 91.163 221.741 86.5739Z" fill="#667EEA"/>
<path opacity="0.4" d="M221.187 86.4116C222.619 81.9898 222.23 77.8687 220.345 76.9722C220.459 76.9864 220.57 77.0112 220.679 77.0463C222.752 77.7192 223.227 81.9849 221.741 86.5739C220.255 91.163 217.37 94.3377 215.298 93.6648C215.223 93.6402 215.149 93.6107 215.078 93.5765C217.116 93.8364 219.779 90.759 221.187 86.4116Z" fill="black"/>
<path d="M220.485 76.9687L180.039 45.5533C172.887 39.958 166.024 34.002 159.476 27.7084C147.946 16.704 132.295 7.90585 114.072 3.22161C69.7986 -8.15901 34.7251 12.0202 18.7727 41.6502C-5.60427 86.9281 -24.286 160.402 83.8014 121.292C107.44 112.738 131.368 111.829 149.511 107.324L215.206 93.7609L220.485 76.9687Z" fill="#667EEA"/>
<path d="M99.0578 24.1045C100.258 24.1045 101.232 23.13 101.232 21.9278C101.232 20.7256 100.258 19.751 99.0578 19.751C97.8572 19.751 96.8839 20.7256 96.8839 21.9278C96.8839 23.13 97.8572 24.1045 99.0578 24.1045Z" fill="#D4D6D7"/>
<path d="M141.287 26.9592H140.722V26.3926H140.611V26.9592H140.045V27.0699H140.611V27.6365H140.722V27.0699H141.287V26.9592Z" fill="#F2F2F2"/>
<path d="M198.119 74.226H197.553V73.6594H197.443V74.226H196.877V74.3367H197.443V74.9033H197.553V74.3367H198.119V74.226Z" fill="#F2F2F2"/>
<path d="M194.082 88.8414H193.516V88.2748H193.406V88.8414H192.84V88.9521H193.406V89.5187H193.516V88.9521H194.082V88.8414Z" fill="#F2F2F2"/>
<path d="M20.4809 101.28H19.9151V100.713H19.8045V101.28H19.2387V101.391H19.8045V101.957H19.9151V101.391H20.4809V101.28Z" fill="#F2F2F2"/>
<path d="M45.3254 33.4895H44.7596V32.9229H44.649V33.4895H44.0832V33.6002H44.649V34.1668H44.7596V33.6002H45.3254V33.4895Z" fill="#F2F2F2"/>
<path d="M141.909 91.3291H141.343V90.7625H141.232V91.3291H140.666V91.4398H141.232V92.0064H141.343V91.4398H141.909V91.3291Z" fill="#F2F2F2"/>
<path d="M82.5922 13.5877H82.0264V13.0211H81.9158V13.5877H81.35V13.6984H81.9158V14.2649H82.0264V13.6984H82.5922V13.5877Z" fill="#F2F2F2"/>
<path d="M82.8097 58.3599L82.1047 58.4687C82.3252 59.8805 82.4991 61.3234 82.6265 62.7507L83.3376 62.6885C83.2103 61.2426 83.0333 59.7872 82.8097 58.3599Z" fill="#E6E6E6"/>
<path d="M80.8811 49.8581L80.1979 50.0664C80.6109 51.4347 80.9805 52.8371 81.2941 54.2334L81.9929 54.0748C81.673 52.663 81.2973 51.245 80.8811 49.8581Z" fill="#E6E6E6"/>
<path d="M77.8035 41.7046L77.1544 42.0031C77.7507 43.306 78.3097 44.6432 78.8159 45.9803L79.4836 45.7285C78.9712 44.3757 78.4091 43.0199 77.8035 41.7046Z" fill="#E6E6E6"/>
<path d="M73.642 34.061L73.0396 34.4435C73.8066 35.65 74.5426 36.9001 75.2259 38.1533L75.8532 37.8113C75.1638 36.5425 74.4184 35.28 73.642 34.061Z" fill="#E6E6E6"/>
<path d="M68.4682 27.055L67.9247 27.5183C68.8502 28.6067 69.7508 29.7448 70.6017 30.8954L71.1731 30.4694C70.316 29.3064 69.406 28.1558 68.4682 27.055Z" fill="#E6E6E6"/>
<path d="M62.3875 20.817L61.9123 21.3487C62.9806 22.3034 64.0272 23.3078 65.0241 24.3309L65.5365 23.8303C64.5272 22.7947 63.4682 21.781 62.3875 20.817Z" fill="#E6E6E6"/>
<path d="M55.518 15.4622L55.1173 16.053C56.3037 16.8522 57.4776 17.7042 58.6049 18.5843L59.0459 18.0214C57.903 17.132 56.7167 16.2707 55.518 15.4622Z" fill="#E6E6E6"/>
<path d="M49.2665 11.743V12.5515C50.0087 12.9402 50.7447 13.3476 51.4652 13.7643L51.8224 13.1455C50.9839 12.6603 50.1319 12.1929 49.2665 11.743Z" fill="#E6E6E6"/>
<path d="M82.8578 67.162L83.5717 67.149C83.5848 67.8708 83.5857 68.5964 83.5746 69.3059L82.8608 69.2947C82.8716 68.5933 82.8707 67.8758 82.8578 67.162Z" fill="#E6E6E6"/>
<path d="M40.8845 119.62L40.1796 119.729C40.4001 121.141 40.574 122.584 40.7013 124.011L41.4125 123.949C41.2851 122.503 41.1081 121.048 40.8845 119.62Z" fill="#E6E6E6"/>
<path d="M38.956 111.118L38.2727 111.327C38.6858 112.695 39.0553 114.097 39.369 115.494L40.0678 115.335C39.7479 113.923 39.3721 112.505 38.956 111.118Z" fill="#E6E6E6"/>
<path d="M35.8784 102.965L35.2293 103.263C35.8256 104.566 36.3846 105.903 36.8908 107.241L37.5585 106.989C37.0461 105.636 36.484 104.28 35.8784 102.965Z" fill="#E6E6E6"/>
<path d="M31.7169 95.3213L31.1144 95.7038C31.8815 96.9103 32.6175 98.1604 33.3008 99.4136L33.9281 99.0715C33.2387 97.8028 32.4933 96.5403 31.7169 95.3213Z" fill="#E6E6E6"/>
<path d="M26.543 88.3153L25.9996 88.7786C26.925 89.867 27.8256 91.0051 28.6766 92.1557L29.248 91.7297C28.3908 90.5667 27.4809 89.4161 26.543 88.3153Z" fill="#E6E6E6"/>
<path d="M20.4623 82.0773L19.9872 82.609C21.0555 83.5637 22.1021 84.5681 23.099 85.5912L23.6114 85.0905C22.6021 84.055 21.5431 83.0413 20.4623 82.0773Z" fill="#E6E6E6"/>
<path d="M13.5928 76.7224L13.1922 77.3133C14.3785 78.1124 15.5525 78.9645 16.6798 79.8445L17.1208 79.2817C15.9779 78.3923 14.7916 77.531 13.5928 76.7224Z" fill="#E6E6E6"/>
<path d="M7.34134 73.0033V73.8118C8.08357 74.2005 8.81959 74.6079 9.54008 75.0246L9.89722 74.4058C9.05871 73.9206 8.20675 73.4532 7.34134 73.0033Z" fill="#E6E6E6"/>
<path d="M40.9327 128.422L41.6465 128.409C41.6596 129.131 41.6606 129.857 41.6494 130.566L40.9357 130.555C40.9465 129.854 40.9456 129.136 40.9327 128.422Z" fill="#E6E6E6"/>
<path d="M184.362 88.8346L183.657 88.9434C183.877 90.3552 184.051 91.7981 184.178 93.2254L184.89 93.1632C184.762 91.7172 184.585 90.2619 184.362 88.8346Z" fill="#E6E6E6"/>
<path d="M182.433 80.3327L181.75 80.5411C182.163 81.9093 182.532 83.3118 182.846 84.708L183.545 84.5494C183.225 83.1377 182.849 81.7197 182.433 80.3327Z" fill="#E6E6E6"/>
<path d="M179.356 72.1792L178.706 72.4778C179.303 73.7807 179.862 75.1179 180.368 76.455L181.036 76.2031C180.523 74.8504 179.961 73.4946 179.356 72.1792Z" fill="#E6E6E6"/>
<path d="M175.194 64.5357L174.592 64.9182C175.359 66.1247 176.095 67.3748 176.778 68.628L177.405 68.2859C176.716 67.0172 175.97 65.7547 175.194 64.5357Z" fill="#E6E6E6"/>
<path d="M170.02 57.5296L169.477 57.993C170.402 59.0813 171.303 60.2195 172.154 61.3701L172.725 60.944C171.868 59.781 170.958 58.6304 170.02 57.5296Z" fill="#E6E6E6"/>
<path d="M163.939 51.2916L163.464 51.8234C164.533 52.7781 165.579 53.7825 166.576 54.8056L167.089 54.3049C166.079 53.2694 165.02 52.2556 163.939 51.2916Z" fill="#E6E6E6"/>
<path d="M157.07 45.9368L156.669 46.5276C157.856 47.3268 159.03 48.1789 160.157 49.0589L160.598 48.496C159.455 47.6067 158.269 46.7453 157.07 45.9368Z" fill="#E6E6E6"/>
<path d="M150.818 42.2177V43.0262C151.561 43.4149 152.297 43.8223 153.017 44.2389L153.374 43.6201C152.536 43.135 151.684 42.6675 150.818 42.2177Z" fill="#E6E6E6"/>
<path d="M184.41 97.6367L185.124 97.6237C185.137 98.3455 185.138 99.0711 185.127 99.7806L184.413 99.7694C184.424 99.068 184.423 98.3504 184.41 97.6367Z" fill="#E6E6E6"/>
<path d="M46.3645 62.1605H45.8382V61.6331H45.7354V62.1605H45.2086V62.2632H45.7354V62.7906H45.8382V62.2632H46.3645V62.1605Z" fill="#F2F2F2"/>
<path d="M40.296 93.9901H39.7696V93.4627H39.6668V93.9901H39.1401V94.093H39.6668V94.6201H39.7696V94.093H40.296V93.9901Z" fill="#F2F2F2"/>
<path d="M22.4896 121.886H21.9629V121.359H21.8601V121.886H21.3337V121.989H21.8601V122.516H21.9629V121.989H22.4896V121.886Z" fill="#F2F2F2"/>
<path d="M72.0238 86.5054C66.9328 78.9277 64.7222 69.7741 65.7931 60.7044C66.864 51.6348 71.1454 43.2497 77.8608 37.0697C84.5763 30.8897 93.2812 27.3241 102.397 27.0195C111.513 26.7149 120.436 29.6914 127.548 35.4093C134.66 41.1271 139.49 49.2077 141.162 58.1857C142.835 67.1637 141.239 76.4446 136.663 84.3453C132.088 92.246 124.837 98.2433 116.225 101.25C107.612 104.256 98.2088 104.073 89.7199 100.733C89.1696 102.699 88.1407 104.499 86.7254 105.97C85.3102 107.441 83.5527 108.538 81.6103 109.162C79.6679 109.787 77.6012 109.919 75.5953 109.547C73.5894 109.175 71.7068 108.311 70.1161 107.033C68.5254 105.754 67.2763 104.1 66.4805 102.219C65.6847 100.338 65.367 98.289 65.5561 96.2552C65.7451 94.2213 66.4348 92.2661 67.5636 90.5646C68.6923 88.8631 70.2248 87.4684 72.0238 86.5054Z" fill="#D4D6D7"/>
<path d="M103.455 43.3601C112.199 43.3601 118.214 48.2162 118.214 55.1968C118.214 59.8194 115.976 63.0179 111.662 65.5627C107.605 67.9207 106.23 69.6483 106.23 72.6366C106.23 72.8789 106.182 73.1187 106.09 73.3425C105.997 73.5662 105.861 73.7696 105.69 73.9408C105.519 74.1121 105.316 74.2479 105.093 74.3406C104.869 74.4333 104.63 74.481 104.388 74.481H99.9179C99.4405 74.481 98.9818 74.2954 98.6384 73.9634C98.295 73.6313 98.0938 73.1787 98.0771 72.701L98.0692 72.4732C97.6728 67.6638 99.3516 64.6755 103.572 62.2008C107.512 59.8428 109.167 58.3486 109.167 55.4536C109.167 52.5587 106.37 50.4341 102.896 50.4341C100.255 50.4341 98.1654 51.7211 97.2069 53.8223C96.87 54.5336 96.3367 55.1334 95.6702 55.5507C95.0036 55.9681 94.2315 56.1856 93.4454 56.1774C90.4169 56.1774 88.4162 52.9525 89.8325 50.272C92.073 46.0318 96.8002 43.3601 103.455 43.3601ZM97.3231 83.376C97.3231 80.6912 99.5614 78.5667 102.313 78.5667C105.087 78.5667 107.326 80.6679 107.326 83.376C107.326 86.0842 105.087 88.1854 102.313 88.1854C99.5381 88.1854 97.3231 86.0842 97.3231 83.376Z" fill="#667EEA"/>
</g>
<defs>
<clipPath id="clip0">
<rect width="343" height="248" fill="white"/>
</clipPath>
</defs>
</svg>
